<svg width="24" height="24" viewBox="0 0 24 24" fill="none" xmlns="http://www.w3.org/2000/svg">
<path d="M17.4142 6.58604C17.0391 6.2111 16.5305 6.00047 16.0002 6.00047C15.4698 6.00047 14.9612 6.2111 14.5862 6.58604L12.0002 9.17204L9.41416 6.58604C9.22967 6.39502 9.00898 6.24266 8.76497 6.13784C8.52096 6.03302 8.25852 5.97785 7.99296 5.97554C7.72741 5.97323 7.46405 6.02384 7.21825 6.1244C6.97246 6.22496 6.74916 6.37346 6.56137 6.56125C6.37359 6.74904 6.22508 6.97234 6.12452 7.21813C6.02396 7.46392 5.97335 7.72728 5.97566 7.99284C5.97797 8.2584 6.03314 8.52084 6.13796 8.76485C6.24278 9.00886 6.39514 9.22955 6.58616 9.41404L9.17116 12L6.58616 14.586C6.39514 14.7705 6.24278 14.9912 6.13796 15.2352C6.03314 15.4792 5.97797 15.7417 5.97566 16.0072C5.97335 16.2728 6.02396 16.5362 6.12452 16.7819C6.22508 17.0277 6.37359 17.251 6.56137 17.4388C6.74916 17.6266 6.97246 17.7751 7.21825 17.8757C7.46405 17.9762 7.72741 18.0268 7.99296 18.0245C8.25852 18.0222 8.52096 17.9671 8.76497 17.8622C9.00898 17.7574 9.22967 17.6051 9.41416 17.414L12.0002 14.828L14.5862 17.414C14.9762 17.805 15.4882 18 16.0002 18C16.5122 18 17.0242 17.805 17.4142 17.414C17.7891 17.039 17.9997 16.5304 17.9997 16C17.9997 15.4697 17.7891 14.9611 17.4142 14.586L14.8292 12L17.4142 9.41404C17.7891 9.03898 17.9997 8.53037 17.9997 8.00004C17.9997 7.46971 17.7891 6.9611 17.4142 6.58604Z" fill="#E8E8E8"/>
</svg>
